<svg id="nn" data-name="nn" 
    xmlns="http://www.w3.org/2000/svg" viewBox="0 0 300 240">
    <defs>
        <style>.cls-1{fill:#cfe7ff;fill-rule:evenodd;}.cls-2{fill:#b0d4ff;}.cls-3{fill:#fcf;stroke:#000;stroke-miterlimit:10;stroke-width:2px;}</style>
    </defs>
    <title>index [已復原]</title>
    <path class="cls-1" d="M285,201a14.89,14.89,0,0,0-7.5,2,14.93,14.93,0,0,0-15,0,14.93,14.93,0,0,0-15,0,14.93,14.93,0,0,0-15,0,14.93,14.93,0,0,0-15,0,14.93,14.93,0,0,0-15,0,14.93,14.93,0,0,0-15,0,14.93,14.93,0,0,0-15,0,14.93,14.93,0,0,0-15,0,14.93,14.93,0,0,0-15,0,14.93,14.93,0,0,0-15,0,14.93,14.93,0,0,0-15,0,14.93,14.93,0,0,0-15,0,14.93,14.93,0,0,0-15,0,14.93,14.93,0,0,0-15,0,14.93,14.93,0,0,0-15,0,14.93,14.93,0,0,0-15,0,14.93,14.93,0,0,0-15,0,15,15,0,1,0,0,26,14.93,14.93,0,0,0,15,0,14.93,14.93,0,0,0,15,0,14.93,14.93,0,0,0,15,0,14.93,14.93,0,0,0,15,0,14.93,14.93,0,0,0,15,0,14.93,14.93,0,0,0,15,0,14.93,14.93,0,0,0,15,0,14.93,14.93,0,0,0,15,0,14.93,14.93,0,0,0,15,0,14.93,14.93,0,0,0,15,0,14.93,14.93,0,0,0,15,0,14.93,14.93,0,0,0,15,0,14.93,14.93,0,0,0,15,0,14.93,14.93,0,0,0,15,0,14.93,14.93,0,0,0,15,0,14.93,14.93,0,0,0,15,0,14.93,14.93,0,0,0,15,0,15,15,0,1,0,7.5-28Z"/>
    <path class="cls-1" d="M285,9a14.89,14.89,0,0,0-7.5,2,14.93,14.93,0,0,0-15,0,14.93,14.93,0,0,0-15,0,14.93,14.93,0,0,0-15,0,14.93,14.93,0,0,0-15,0,14.93,14.93,0,0,0-15,0,14.93,14.93,0,0,0-15,0,14.93,14.93,0,0,0-15,0,14.93,14.93,0,0,0-15,0,14.93,14.93,0,0,0-15,0,14.93,14.93,0,0,0-15,0,14.93,14.93,0,0,0-15,0,14.93,14.93,0,0,0-15,0,14.93,14.93,0,0,0-15,0,14.93,14.93,0,0,0-15,0,14.93,14.93,0,0,0-15,0,14.93,14.93,0,0,0-15,0,14.93,14.93,0,0,0-15,0,15,15,0,1,0,0,26,14.93,14.93,0,0,0,15,0,14.93,14.93,0,0,0,15,0,14.93,14.93,0,0,0,15,0,14.93,14.93,0,0,0,15,0,14.93,14.93,0,0,0,15,0,14.93,14.93,0,0,0,15,0,14.93,14.93,0,0,0,15,0,14.93,14.93,0,0,0,15,0,14.93,14.93,0,0,0,15,0,14.93,14.93,0,0,0,15,0,14.93,14.93,0,0,0,15,0,14.93,14.93,0,0,0,15,0,14.93,14.93,0,0,0,15,0,14.93,14.93,0,0,0,15,0,14.93,14.93,0,0,0,15,0,14.93,14.93,0,0,0,15,0,14.93,14.93,0,0,0,15,0A15,15,0,1,0,285,9Z"/>
    <path class="cls-2" d="M0,216H300a0,0,0,0,1,0,0v0a24,24,0,0,1-24,24H24A24,24,0,0,1,0,216v0A0,0,0,0,1,0,216Z"/>
    <path class="cls-2" d="M24,0H276a24,24,0,0,1,24,24v0a0,0,0,0,1,0,0H0a0,0,0,0,1,0,0v0A24,24,0,0,1,24,0Z"/>
    <rect class="cls-3" x="30" y="108" width="240" height="24" rx="12"/>
</svg>